NotoSerifTamilSlanted-ExtraCondensed.ufo
<glyph name="exclam" format="2">
  <advance width="280"/>
  <unicode hex="0021"/>
  <outline>
    <contour>
      <point x="112" y="206" type="line"/>
      <point x="158" y="206" type="line"/>
      <point x="298" y="714" type="line"/>
      <point x="192" y="714" type="line"/>
    </contour>
    <contour>
      <point x="105" y="-8" type="curve" smooth="yes"/>
      <point x="134" y="-8"/>
      <point x="165" y="13"/>
      <point x="165" y="71" type="curve" smooth="yes"/>
      <point x="165" y="108"/>
      <point x="144" y="127"/>
      <point x="114" y="127" type="curve" smooth="yes"/>
      <point x="78" y="127"/>
      <point x="53" y="95"/>
      <point x="53" y="48" type="curve" smooth="yes"/>
      <point x="53" y="11"/>
      <point x="74" y="-8"/>
    </contour>
  </outline>
</glyph>
<glyph name="numbersign" format="2">
  <advance width="447"/>
  <unicode hex="0023"/>
  <outline>
    <contour>
      <point x="42" y="0" type="line"/>
      <point x="93" y="0" type="line"/>
      <point x="149" y="203" type="line"/>
      <point x="260" y="203" type="line"/>
      <point x="205" y="0" type="line"/>
      <point x="255" y="0" type="line"/>
      <point x="310" y="203" type="line"/>
      <point x="406" y="203" type="line"/>
      <point x="414" y="262" type="line"/>
      <point x="329" y="262" type="line"/>
      <point x="382" y="459" type="line"/>
      <point x="463" y="459" type="line"/>
      <point x="471" y="517" type="line"/>
      <point x="399" y="517" type="line"/>
      <point x="453" y="714" type="line"/>
      <point x="402" y="714" type="line"/>
      <point x="348" y="517" type="line"/>
      <point x="237" y="517" type="line"/>
      <point x="291" y="714" type="line"/>
      <point x="240" y="714" type="line"/>
      <point x="187" y="517" type="line"/>
      <point x="93" y="517" type="line"/>
      <point x="86" y="459" type="line"/>
      <point x="170" y="459" type="line"/>
      <point x="116" y="262" type="line"/>
      <point x="36" y="262" type="line"/>
      <point x="28" y="203" type="line"/>
      <point x="99" y="203" type="line"/>
    </contour>
    <contour>
      <point x="166" y="262" type="line"/>
      <point x="220" y="459" type="line"/>
      <point x="331" y="459" type="line"/>
      <point x="278" y="262" type="line"/>
    </contour>
  </outline>
</glyph>
<glyph name="hyphen" format="2">
  <advance width="248"/>
  <unicode hex="002D"/>
  <outline>
    <contour>
      <point x="21" y="237" type="line"/>
      <point x="229" y="237" type="line"/>
      <point x="246" y="308" type="line"/>
      <point x="38" y="308" type="line"/>
    </contour>
  </outline>
</glyph>
<glyph name="period" format="2">
  <advance width="211"/>
  <unicode hex="002E"/>
  <outline>
    <contour>
      <point x="76" y="-8" type="curve" smooth="yes"/>
      <point x="105" y="-8"/>
      <point x="137" y="13"/>
      <point x="137" y="71" type="curve" smooth="yes"/>
      <point x="137" y="108"/>
      <point x="115" y="127"/>
      <point x="85" y="127" type="curve" smooth="yes"/>
      <point x="49" y="127"/>
      <point x="24" y="95"/>
      <point x="24" y="48" type="curve" smooth="yes"/>
      <point x="24" y="11"/>
      <point x="45" y="-8"/>
    </contour>
  </outline>
</glyph>
<glyph name="five" format="2">
  <advance width="461"/>
  <unicode hex="0035"/>
  <outline>
    <contour>
      <point x="159" y="-10" type="curve" smooth="yes"/>
      <point x="307" y="-10"/>
      <point x="397" y="106"/>
      <point x="397" y="253" type="curve" smooth="yes"/>
      <point x="397" y="365"/>
      <point x="334" y="426"/>
      <point x="233" y="426" type="curve" smooth="yes"/>
      <point x="197" y="426"/>
      <point x="173" y="418"/>
      <point x="156" y="411" type="curve"/>
      <point x="216" y="637" type="line"/>
      <point x="372" y="637" type="line" smooth="yes"/>
      <point x="400" y="637"/>
      <point x="408" y="628"/>
      <point x="408" y="615" type="curve" smooth="yes"/>
      <point x="408" y="609"/>
      <point x="405" y="586"/>
      <point x="403" y="567" type="curve"/>
      <point x="441" y="567" type="line"/>
      <point x="470" y="714" type="line"/>
      <point x="193" y="714" type="line"/>
      <point x="95" y="364" type="line"/>
      <point x="122" y="351" type="line"/>
      <point x="144" y="362"/>
      <point x="169" y="373"/>
      <point x="209" y="373" type="curve" smooth="yes"/>
      <point x="264" y="373"/>
      <point x="304" y="330"/>
      <point x="304" y="245" type="curve" smooth="yes"/>
      <point x="304" y="113"/>
      <point x="248" y="43"/>
      <point x="168" y="43" type="curve" smooth="yes"/>
      <point x="96" y="43"/>
      <point x="81" y="113"/>
      <point x="82" y="163" type="curve"/>
      <point x="36" y="163"/>
      <point x="16" y="135"/>
      <point x="16" y="95" type="curve" smooth="yes"/>
      <point x="16" y="43"/>
      <point x="55" y="-10"/>
    </contour>
  </outline>
</glyph>
<glyph name="eight" format="2">
  <advance width="461"/>
  <unicode hex="0038"/>
  <outline>
    <contour>
      <point x="198" y="-10" type="curve" smooth="yes"/>
      <point x="314" y="-10"/>
      <point x="410" y="60"/>
      <point x="410" y="211" type="curve" smooth="yes"/>
      <point x="410" y="286"/>
      <point x="372" y="339"/>
      <point x="316" y="380" type="curve"/>
      <point x="406" y="427"/>
      <point x="464" y="480"/>
      <point x="464" y="584" type="curve" smooth="yes"/>
      <point x="464" y="665"/>
      <point x="411" y="724"/>
      <point x="316" y="724" type="curve" smooth="yes"/>
      <point x="173" y="724"/>
      <point x="116" y="632"/>
      <point x="116" y="522" type="curve" smooth="yes"/>
      <point x="116" y="463"/>
      <point x="144" y="407"/>
      <point x="188" y="365" type="curve"/>
      <point x="91" y="321"/>
      <point x="21" y="267"/>
      <point x="21" y="151" type="curve" smooth="yes"/>
      <point x="21" y="57"/>
      <point x="85" y="-10"/>
    </contour>
    <contour>
      <point x="199" y="38" type="curve" smooth="yes"/>
      <point x="139" y="38"/>
      <point x="105" y="82"/>
      <point x="105" y="152" type="curve" smooth="yes"/>
      <point x="105" y="248"/>
      <point x="152" y="305"/>
      <point x="226" y="341" type="curve"/>
      <point x="291" y="297"/>
      <point x="325" y="255"/>
      <point x="325" y="187" type="curve" smooth="yes"/>
      <point x="325" y="88"/>
      <point x="267" y="38"/>
    </contour>
    <contour>
      <point x="277" y="404" type="curve"/>
      <point x="227" y="441"/>
      <point x="203" y="480"/>
      <point x="203" y="535" type="curve" smooth="yes"/>
      <point x="203" y="620"/>
      <point x="246" y="675"/>
      <point x="311" y="675" type="curve" smooth="yes"/>
      <point x="361" y="675"/>
      <point x="385" y="634"/>
      <point x="385" y="578" type="curve" smooth="yes"/>
      <point x="385" y="506"/>
      <point x="359" y="450"/>
    </contour>
  </outline>
</glyph>
<glyph name="colon" format="2">
  <advance width="245"/>
  <unicode hex="003A"/>
  <outline>
    <contour>
      <point x="171" y="406" type="curve" smooth="yes"/>
      <point x="200" y="406"/>
      <point x="231" y="427"/>
      <point x="231" y="485" type="curve" smooth="yes"/>
      <point x="231" y="522"/>
      <point x="210" y="541"/>
      <point x="180" y="541" type="curve" smooth="yes"/>
      <point x="144" y="541"/>
      <point x="120" y="508"/>
      <point x="120" y="461" type="curve" smooth="yes"/>
      <point x="120" y="425"/>
      <point x="140" y="406"/>
    </contour>
    <contour>
      <point x="81" y="-8" type="curve" smooth="yes"/>
      <point x="110" y="-8"/>
      <point x="142" y="13"/>
      <point x="142" y="71" type="curve" smooth="yes"/>
      <point x="142" y="108"/>
      <point x="120" y="127"/>
      <point x="91" y="127" type="curve" smooth="yes"/>
      <point x="54" y="127"/>
      <point x="30" y="95"/>
      <point x="30" y="48" type="curve" smooth="yes"/>
      <point x="30" y="11"/>
      <point x="51" y="-8"/>
    </contour>
  </outline>
</glyph>
<glyph name="backslash" format="2">
  <advance width="231"/>
  <unicode hex="005C"/>
  <outline>
    <contour>
      <point x="142" y="-121" type="line"/>
      <point x="191" y="-121" type="line"/>
      <point x="156" y="760" type="line"/>
      <point x="107" y="760" type="line"/>
    </contour>
  </outline>
</glyph>
<glyph name="underscore" format="2">
  <advance width="367"/>
  <unicode hex="005F"/>
  <outline>
    <contour>
      <point x="-79" y="-142" type="line"/>
      <point x="295" y="-142" type="line"/>
      <point x="308" y="-83" type="line"/>
      <point x="-66" y="-83" type="line"/>
    </contour>
  </outline>
</glyph>
<glyph name="braceright" format="2">
  <advance width="345"/>
  <unicode hex="007D"/>
  <outline>
    <contour>
      <point x="-47" y="-129" type="line"/>
      <point x="5" y="-129" type="line" smooth="yes"/>
      <point x="104" y="-129"/>
      <point x="144" y="-80"/>
      <point x="164" y="15" type="curve" smooth="yes"/>
      <point x="201" y="189" type="line" smooth="yes"/>
      <point x="219" y="272"/>
      <point x="264" y="294"/>
      <point x="316" y="297" type="curve"/>
      <point x="326" y="337" type="line"/>
      <point x="283" y="339"/>
      <point x="250" y="354"/>
      <point x="250" y="406" type="curve" smooth="yes"/>
      <point x="250" y="420"/>
      <point x="252" y="430"/>
      <point x="255" y="443" type="curve" smooth="yes"/>
      <point x="291" y="618" type="line" smooth="yes"/>
      <point x="295" y="636"/>
      <point x="296" y="649"/>
      <point x="296" y="664" type="curve" smooth="yes"/>
      <point x="296" y="714"/>
      <point x="267" y="760"/>
      <point x="201" y="760" type="curve" smooth="yes"/>
      <point x="142" y="760" type="line"/>
      <point x="133" y="718" type="line"/>
      <point x="159" y="718" type="line" smooth="yes"/>
      <point x="192" y="718"/>
      <point x="207" y="700"/>
      <point x="207" y="667" type="curve" smooth="yes"/>
      <point x="207" y="644"/>
      <point x="205" y="630"/>
      <point x="201" y="612" type="curve" smooth="yes"/>
      <point x="165" y="448" type="line" smooth="yes"/>
      <point x="162" y="434"/>
      <point x="159" y="420"/>
      <point x="159" y="404" type="curve" smooth="yes"/>
      <point x="159" y="359"/>
      <point x="181" y="330"/>
      <point x="226" y="320" type="curve"/>
      <point x="226" y="316" type="line"/>
      <point x="162" y="304"/>
      <point x="125" y="259"/>
      <point x="111" y="193" type="curve" smooth="yes"/>
      <point x="74" y="19" type="line" smooth="yes"/>
      <point x="57" y="-59"/>
      <point x="36" y="-87"/>
      <point x="-11" y="-87" type="curve" smooth="yes"/>
      <point x="-38" y="-87" type="line"/>
    </contour>
  </outline>
</glyph>
<glyph name="asciitilde" format="2">
  <advance width="425"/>
  <unicode hex="007E"/>
  <outline>
    <contour>
      <point x="45" y="270" type="curve"/>
      <point x="99" y="270" type="line"/>
      <point x="105" y="351"/>
      <point x="118" y="389"/>
      <point x="150" y="389" type="curve" smooth="yes"/>
      <point x="171" y="389"/>
      <point x="185" y="370"/>
      <point x="214" y="335" type="curve" smooth="yes"/>
      <point x="261" y="278"/>
      <point x="285" y="270"/>
      <point x="315" y="270" type="curve" smooth="yes"/>
      <point x="386" y="270"/>
      <point x="407" y="362"/>
      <point x="413" y="444" type="curve"/>
      <point x="359" y="444" type="line"/>
      <point x="353" y="363"/>
      <point x="342" y="325"/>
      <point x="311" y="325" type="curve" smooth="yes"/>
      <point x="290" y="325"/>
      <point x="275" y="345"/>
      <point x="246" y="378" type="curve" smooth="yes"/>
      <point x="210" y="418"/>
      <point x="185" y="444"/>
      <point x="146" y="444" type="curve" smooth="yes"/>
      <point x="72" y="444"/>
      <point x="51" y="354"/>
    </contour>
  </outline>
</glyph>
<glyph name="multiply" format="2">
  <advance width="425"/>
  <unicode hex="00D7"/>
  <outline>
    <contour>
      <point x="103" y="151" type="line"/>
      <point x="231" y="314" type="line"/>
      <point x="358" y="151" type="line"/>
      <point x="401" y="186" type="line"/>
      <point x="266" y="358" type="line"/>
      <point x="401" y="529" type="line"/>
      <point x="358" y="564" type="line"/>
      <point x="231" y="403" type="line"/>
      <point x="103" y="565" type="line"/>
      <point x="60" y="530" type="line"/>
      <point x="196" y="358" type="line"/>
      <point x="60" y="185" type="line"/>
    </contour>
  </outline>
</glyph>
<glyph name="divide" format="2">
  <advance width="425"/>
  <unicode hex="00F7"/>
  <outline>
    <contour>
      <point x="58" y="329" type="line"/>
      <point x="397" y="329" type="line"/>
      <point x="397" y="386" type="line"/>
      <point x="58" y="386" type="line"/>
    </contour>
    <contour>
      <point x="229" y="114" type="curve" smooth="yes"/>
      <point x="252" y="114"/>
      <point x="272" y="128"/>
      <point x="272" y="168" type="curve" smooth="yes"/>
      <point x="272" y="209"/>
      <point x="252" y="222"/>
      <point x="229" y="222" type="curve" smooth="yes"/>
      <point x="203" y="222"/>
      <point x="185" y="209"/>
      <point x="185" y="168" type="curve" smooth="yes"/>
      <point x="185" y="128"/>
      <point x="203" y="114"/>
    </contour>
    <contour>
      <point x="229" y="493" type="curve" smooth="yes"/>
      <point x="252" y="493"/>
      <point x="272" y="507"/>
      <point x="272" y="547" type="curve" smooth="yes"/>
      <point x="272" y="588"/>
      <point x="252" y="601"/>
      <point x="229" y="601" type="curve" smooth="yes"/>
      <point x="203" y="601"/>
      <point x="185" y="588"/>
      <point x="185" y="547" type="curve" smooth="yes"/>
      <point x="185" y="507"/>
      <point x="203" y="493"/>
    </contour>
  </outline>
</glyph>
<glyph name="visarga-tamil" format="2">
  <advance width="672"/>
  <unicode hex="0B83"/>
  <note>
uni0B83
</note>
  <outline>
    <contour>
      <point x="122" y="0" type="curve" smooth="yes"/>
      <point x="219" y="0"/>
      <point x="287" y="113"/>
      <point x="288" y="232" type="curve" smooth="yes"/>
      <point x="289" y="321"/>
      <point x="248" y="369"/>
      <point x="185" y="369" type="curve" smooth="yes"/>
      <point x="84" y="369"/>
      <point x="25" y="233"/>
      <point x="25" y="128" type="curve" smooth="yes"/>
      <point x="25" y="51"/>
      <point x="63" y="0"/>
    </contour>
    <contour>
      <point x="122" y="54" type="curve" smooth="yes"/>
      <point x="84" y="54"/>
      <point x="72" y="87"/>
      <point x="72" y="134" type="curve" smooth="yes"/>
      <point x="72" y="204"/>
      <point x="109" y="315"/>
      <point x="170" y="315" type="curve" smooth="yes"/>
      <point x="205" y="315"/>
      <point x="222" y="289"/>
      <point x="222" y="237" type="curve" smooth="yes"/>
      <point x="222" y="159"/>
      <point x="186" y="54"/>
    </contour>
    <contour>
      <point x="440" y="0" type="curve" smooth="yes"/>
      <point x="537" y="0"/>
      <point x="605" y="113"/>
      <point x="606" y="232" type="curve" smooth="yes"/>
      <point x="607" y="321"/>
      <point x="566" y="369"/>
      <point x="503" y="369" type="curve" smooth="yes"/>
      <point x="402" y="369"/>
      <point x="343" y="233"/>
      <point x="343" y="128" type="curve" smooth="yes"/>
      <point x="343" y="51"/>
      <point x="381" y="0"/>
    </contour>
    <contour>
      <point x="440" y="54" type="curve" smooth="yes"/>
      <point x="402" y="54"/>
      <point x="390" y="87"/>
      <point x="390" y="134" type="curve" smooth="yes"/>
      <point x="390" y="204"/>
      <point x="427" y="315"/>
      <point x="488" y="315" type="curve" smooth="yes"/>
      <point x="523" y="315"/>
      <point x="540" y="289"/>
      <point x="540" y="237" type="curve" smooth="yes"/>
      <point x="540" y="159"/>
      <point x="504" y="54"/>
    </contour>
    <contour>
      <point x="368" y="412" type="curve" smooth="yes"/>
      <point x="465" y="412"/>
      <point x="533" y="525"/>
      <point x="534" y="644" type="curve" smooth="yes"/>
      <point x="535" y="733"/>
      <point x="494" y="781"/>
      <point x="431" y="781" type="curve" smooth="yes"/>
      <point x="330" y="781"/>
      <point x="271" y="645"/>
      <point x="271" y="540" type="curve" smooth="yes"/>
      <point x="271" y="463"/>
      <point x="309" y="412"/>
    </contour>
    <contour>
      <point x="368" y="466" type="curve" smooth="yes"/>
      <point x="330" y="466"/>
      <point x="318" y="499"/>
      <point x="318" y="546" type="curve" smooth="yes"/>
      <point x="318" y="616"/>
      <point x="355" y="727"/>
      <point x="416" y="727" type="curve" smooth="yes"/>
      <point x="451" y="727"/>
      <point x="468" y="701"/>
      <point x="468" y="649" type="curve" smooth="yes"/>
      <point x="468" y="571"/>
      <point x="432" y="466"/>
    </contour>
  </outline>
</glyph>
<glyph name="ii-tamil" format="2">
  <advance width="596"/>
  <unicode hex="0B88"/>
  <note>
uni0B88
</note>
  <anchor x="257" y="0" name="bottom"/>
  <anchor x="258" y="0" name="nukta"/>
  <anchor x="376" y="554" name="top"/>
  <anchor x="377" y="554" name="vedic"/>
  <outline>
    <contour>
      <point x="16" y="0" type="line"/>
      <point x="70" y="0" type="line"/>
      <point x="176" y="500" type="line"/>
      <point x="368" y="500" type="line"/>
      <point x="262" y="0" type="line"/>
      <point x="350" y="0" type="line"/>
      <point x="456" y="500" type="line"/>
      <point x="603" y="500" type="line"/>
      <point x="615" y="554" type="line"/>
      <point x="133" y="554" type="line"/>
    </contour>
    <contour>
      <point x="221" y="214" type="curve" smooth="yes"/>
      <point x="250" y="214"/>
      <point x="273" y="237"/>
      <point x="273" y="264" type="curve" smooth="yes"/>
      <point x="273" y="291"/>
      <point x="250" y="315"/>
      <point x="221" y="315" type="curve" smooth="yes"/>
      <point x="192" y="315"/>
      <point x="169" y="291"/>
      <point x="169" y="264" type="curve" smooth="yes"/>
      <point x="169" y="237"/>
      <point x="192" y="214"/>
    </contour>
    <contour>
      <point x="502" y="214" type="curve" smooth="yes"/>
      <point x="531" y="214"/>
      <point x="554" y="237"/>
      <point x="554" y="264" type="curve" smooth="yes"/>
      <point x="554" y="291"/>
      <point x="531" y="315"/>
      <point x="502" y="315" type="curve" smooth="yes"/>
      <point x="473" y="315"/>
      <point x="450" y="291"/>
      <point x="450" y="264" type="curve" smooth="yes"/>
      <point x="450" y="237"/>
      <point x="473" y="214"/>
    </contour>
  </outline>
</glyph>
<glyph name="u-tamil" format="2">
  <advance width="727"/>
  <unicode hex="0B89"/>
  <note>
uni0B89
</note>
  <anchor x="333" y="0" name="bottom"/>
  <anchor x="334" y="0" name="nukta"/>
  <anchor x="455" y="554" name="top"/>
  <anchor x="454" y="554" name="vedic"/>
  <outline>
    <contour>
      <point x="77" y="0" type="curve" smooth="yes"/>
      <point x="640" y="0" type="line"/>
      <point x="651" y="54" type="line"/>
      <point x="84" y="54" type="line" smooth="yes"/>
      <point x="62" y="54"/>
      <point x="46" y="71"/>
      <point x="46" y="91" type="curve" smooth="yes"/>
      <point x="46" y="122"/>
      <point x="70" y="135"/>
      <point x="88" y="135" type="curve" smooth="yes"/>
      <point x="249" y="135" type="line" smooth="yes"/>
      <point x="390" y="135"/>
      <point x="505" y="221"/>
      <point x="505" y="371" type="curve" smooth="yes"/>
      <point x="505" y="497"/>
      <point x="416" y="559"/>
      <point x="318" y="559" type="curve" smooth="yes"/>
      <point x="206" y="559"/>
      <point x="119" y="465"/>
      <point x="119" y="357" type="curve" smooth="yes"/>
      <point x="119" y="298"/>
      <point x="153" y="247"/>
      <point x="214" y="247" type="curve" smooth="yes"/>
      <point x="289" y="247"/>
      <point x="346" y="305"/>
      <point x="346" y="395" type="curve" smooth="yes"/>
      <point x="346" y="451"/>
      <point x="318" y="502"/>
      <point x="274" y="519" type="curve"/>
      <point x="233" y="516" type="line"/>
      <point x="260" y="494"/>
      <point x="275" y="445"/>
      <point x="275" y="402" type="curve" smooth="yes"/>
      <point x="275" y="351"/>
      <point x="254" y="301"/>
      <point x="206" y="301" type="curve" smooth="yes"/>
      <point x="178" y="301"/>
      <point x="166" y="328"/>
      <point x="166" y="361" type="curve" smooth="yes"/>
      <point x="166" y="437"/>
      <point x="219" y="505"/>
      <point x="303" y="505" type="curve" smooth="yes"/>
      <point x="370" y="505"/>
      <point x="418" y="463"/>
      <point x="418" y="374" type="curve" smooth="yes"/>
      <point x="418" y="264"/>
      <point x="349" y="188"/>
      <point x="248" y="188" type="curve" smooth="yes"/>
      <point x="93" y="188" type="line" smooth="yes"/>
      <point x="34" y="188"/>
      <point x="-7" y="144"/>
      <point x="-7" y="85" type="curve" smooth="yes"/>
      <point x="-7" y="41"/>
      <point x="22" y="0"/>
    </contour>
  </outline>
</glyph>
<glyph name="ra-tamil" format="2">
  <advance width="494"/>
  <unicode hex="0BB0"/>
  <note>
uni0BB0
</note>
  <anchor x="185" y="0" name="bottom"/>
  <anchor x="467" y="554" name="imatra"/>
  <anchor x="143" y="-199" name="nukta"/>
  <anchor x="319" y="554" name="top"/>
  <anchor x="329" y="554" name="vedic"/>
  <outline>
    <contour>
      <point x="74" y="-204" type="line"/>
      <point x="301" y="25" type="line"/>
      <point x="402" y="500" type="line"/>
      <point x="519" y="500" type="line"/>
      <point x="530" y="554" type="line"/>
      <point x="133" y="554" type="line"/>
      <point x="16" y="0" type="line"/>
      <point x="72" y="0" type="line"/>
      <point x="178" y="500" type="line"/>
      <point x="314" y="500" type="line"/>
      <point x="209" y="2" type="line"/>
      <point x="40" y="-169" type="line"/>
    </contour>
  </outline>
</glyph>
<glyph name="om-tamil" format="2">
  <advance width="739"/>
  <unicode hex="0BD0"/>
  <note>
uni0BD0
</note>
  <outline>
    <contour>
      <point x="141" y="-345" type="curve" smooth="yes"/>
      <point x="318" y="-345"/>
      <point x="385" y="-135"/>
      <point x="517" y="-135" type="curve" smooth="yes"/>
      <point x="539" y="-135" type="line"/>
      <point x="551" y="-81" type="line"/>
      <point x="519" y="-81" type="line" smooth="yes"/>
      <point x="375" y="-81"/>
      <point x="338" y="53"/>
      <point x="428" y="187" type="curve"/>
      <point x="433" y="184" type="line"/>
      <point x="391" y="84"/>
      <point x="400" y="-5"/>
      <point x="497" y="-5" type="curve" smooth="yes"/>
      <point x="605" y="-5"/>
      <point x="689" y="109"/>
      <point x="689" y="263" type="curve" smooth="yes"/>
      <point x="689" y="446"/>
      <point x="564" y="559"/>
      <point x="388" y="559" type="curve" smooth="yes"/>
      <point x="193" y="559"/>
      <point x="28" y="405"/>
      <point x="28" y="213" type="curve" smooth="yes"/>
      <point x="28" y="82"/>
      <point x="76" y="5"/>
      <point x="164" y="5" type="curve" smooth="yes"/>
      <point x="244" y="5"/>
      <point x="318" y="76"/>
      <point x="318" y="184" type="curve" smooth="yes"/>
      <point x="318" y="267"/>
      <point x="272" y="313"/>
      <point x="209" y="313" type="curve" smooth="yes"/>
      <point x="134" y="313"/>
      <point x="80" y="247"/>
      <point x="51" y="154" type="curve"/>
      <point x="74" y="126" type="line"/>
      <point x="96" y="203"/>
      <point x="128" y="246"/>
      <point x="176" y="246" type="curve" smooth="yes"/>
      <point x="210" y="246"/>
      <point x="232" y="219"/>
      <point x="232" y="167" type="curve" smooth="yes"/>
      <point x="232" y="108"/>
      <point x="203" y="59"/>
      <point x="152" y="59" type="curve" smooth="yes"/>
      <point x="104" y="59"/>
      <point x="79" y="117"/>
      <point x="79" y="214" type="curve" smooth="yes"/>
      <point x="79" y="375"/>
      <point x="217" y="505"/>
      <point x="375" y="505" type="curve" smooth="yes"/>
      <point x="511" y="505"/>
      <point x="604" y="409"/>
      <point x="604" y="265" type="curve" smooth="yes"/>
      <point x="604" y="158"/>
      <point x="565" y="49"/>
      <point x="491" y="49" type="curve" smooth="yes"/>
      <point x="422" y="49"/>
      <point x="456" y="161"/>
      <point x="502" y="249" type="curve"/>
      <point x="446" y="278" type="line"/>
      <point x="334" y="139"/>
      <point x="282" y="-37"/>
      <point x="427" y="-103" type="curve"/>
      <point x="426" y="-108" type="line"/>
      <point x="321" y="-129"/>
      <point x="275" y="-285"/>
      <point x="135" y="-285" type="curve" smooth="yes"/>
      <point x="61" y="-285"/>
      <point x="16" y="-239"/>
      <point x="42" y="-164" type="curve"/>
      <point x="-5" y="-157" type="line"/>
      <point x="-45" y="-273"/>
      <point x="36" y="-345"/>
    </contour>
    <contour>
      <point x="66" y="-222" type="line"/>
      <point x="104" y="-222" type="line"/>
      <point x="136" y="-70" type="line"/>
      <point x="98" y="-70" type="line"/>
    </contour>
    <contour>
      <point x="78" y="-222" type="line"/>
      <point x="225" y="-222" type="line"/>
      <point x="233" y="-184" type="line"/>
      <point x="86" y="-184" type="line"/>
    </contour>
    <contour>
      <point x="134" y="-222" type="line"/>
      <point x="170" y="-222" type="line"/>
      <point x="191" y="-125" type="line" smooth="yes"/>
      <point x="194" y="-112"/>
      <point x="199" y="-106"/>
      <point x="209" y="-106" type="curve" smooth="yes"/>
      <point x="223" y="-106"/>
      <point x="225" y="-118"/>
      <point x="222" y="-132" type="curve" smooth="yes"/>
      <point x="203" y="-222" type="line"/>
      <point x="243" y="-222" type="line"/>
      <point x="261" y="-135" type="line" smooth="yes"/>
      <point x="269" y="-97"/>
      <point x="253" y="-67"/>
      <point x="215" y="-67" type="curve" smooth="yes"/>
      <point x="184" y="-67"/>
      <point x="163" y="-88"/>
      <point x="154" y="-128" type="curve" smooth="yes"/>
    </contour>
    <contour>
      <point x="190" y="-61" type="curve" smooth="yes"/>
      <point x="206" y="-61"/>
      <point x="219" y="-48"/>
      <point x="219" y="-33" type="curve" smooth="yes"/>
      <point x="219" y="-19"/>
      <point x="206" y="-6"/>
      <point x="190" y="-6" type="curve" smooth="yes"/>
      <point x="174" y="-6"/>
      <point x="161" y="-19"/>
      <point x="161" y="-33" type="curve" smooth="yes"/>
      <point x="161" y="-48"/>
      <point x="174" y="-61"/>
    </contour>
  </outline>
</glyph>
<glyph name="ten-tamil" format="2">
  <advance width="635"/>
  <unicode hex="0BF0"/>
  <note>
uni0BF0
</note>
  <outline>
    <contour>
      <point x="321" y="-5" type="curve" smooth="yes"/>
      <point x="503" y="-5"/>
      <point x="610" y="245"/>
      <point x="610" y="457" type="curve" smooth="yes"/>
      <point x="610" y="638"/>
      <point x="531" y="772"/>
      <point x="359" y="796" type="curve"/>
      <point x="347" y="742" type="line"/>
      <point x="498" y="722"/>
      <point x="556" y="603"/>
      <point x="556" y="450" type="curve" smooth="yes"/>
      <point x="556" y="293"/>
      <point x="472" y="49"/>
      <point x="350" y="49" type="curve" smooth="yes"/>
      <point x="326" y="49"/>
      <point x="312" y="66"/>
      <point x="319" y="99" type="curve" smooth="yes"/>
      <point x="416" y="554" type="line"/>
      <point x="327" y="554" type="line"/>
      <point x="235" y="121" type="line" smooth="yes"/>
      <point x="221" y="54"/>
      <point x="245" y="-5"/>
    </contour>
    <contour>
      <point x="136" y="-5" type="curve" smooth="yes"/>
      <point x="201" y="-5"/>
      <point x="250" y="37"/>
      <point x="272" y="137" type="curve" smooth="yes"/>
      <point x="285" y="197" type="line"/>
      <point x="251" y="197" type="line"/>
      <point x="237" y="134" type="line" smooth="yes"/>
      <point x="223" y="73"/>
      <point x="200" y="49"/>
      <point x="167" y="49" type="curve" smooth="yes"/>
      <point x="129" y="49"/>
      <point x="124" y="86"/>
      <point x="133" y="130" type="curve" smooth="yes"/>
      <point x="223" y="554" type="line"/>
      <point x="132" y="554" type="line"/>
      <point x="45" y="141" type="line" smooth="yes"/>
      <point x="29" y="67"/>
      <point x="56" y="-5"/>
    </contour>
  </outline>
</glyph>
<glyph name="onethousand-tamil" format="2">
  <advance width="848"/>
  <unicode hex="0BF2"/>
  <note>
uni0BF2
</note>
  <outline>
    <contour>
      <point x="161" y="-4" type="curve" smooth="yes"/>
      <point x="270" y="-4"/>
      <point x="326" y="62"/>
      <point x="352" y="186" type="curve" smooth="yes"/>
      <point x="368" y="263" type="line"/>
      <point x="753" y="263" type="line"/>
      <point x="764" y="317" type="line"/>
      <point x="380" y="317" type="line"/>
      <point x="419" y="500" type="line"/>
      <point x="532" y="500" type="line"/>
      <point x="544" y="554" type="line"/>
      <point x="188" y="554" type="line"/>
      <point x="131" y="286" type="line"/>
      <point x="185" y="286" type="line"/>
      <point x="230" y="500" type="line"/>
      <point x="330" y="500" type="line"/>
      <point x="292" y="317" type="line"/>
      <point x="175" y="317" type="line" smooth="yes"/>
      <point x="75" y="317"/>
      <point x="13" y="229"/>
      <point x="13" y="138" type="curve" smooth="yes"/>
      <point x="13" y="60"/>
      <point x="71" y="-4"/>
    </contour>
    <contour>
      <point x="155" y="49" type="curve" smooth="yes"/>
      <point x="102" y="49"/>
      <point x="70" y="91"/>
      <point x="70" y="143" type="curve" smooth="yes"/>
      <point x="70" y="207"/>
      <point x="100" y="263"/>
      <point x="169" y="263" type="curve" smooth="yes"/>
      <point x="280" y="263" type="line"/>
      <point x="261" y="175" type="line" smooth="yes"/>
      <point x="241" y="82"/>
      <point x="210" y="49"/>
    </contour>
    <contour>
      <point x="279" y="-273" type="curve"/>
      <point x="293" y="-205"/>
      <point x="321" y="-167"/>
      <point x="394" y="-167" type="curve" smooth="yes"/>
      <point x="507" y="-167" type="line" smooth="yes"/>
      <point x="644" y="-167"/>
      <point x="762" y="-104"/>
      <point x="762" y="49" type="curve" smooth="yes"/>
      <point x="762" y="135"/>
      <point x="706" y="188"/>
      <point x="616" y="188" type="curve" smooth="yes"/>
      <point x="503" y="188" type="line" smooth="yes"/>
      <point x="430" y="188"/>
      <point x="371" y="130"/>
      <point x="371" y="55" type="curve" smooth="yes"/>
      <point x="371" y="-7"/>
      <point x="416" y="-56"/>
      <point x="479" y="-56" type="curve" smooth="yes"/>
      <point x="552" y="-56"/>
      <point x="594" y="-12"/>
      <point x="613" y="79" type="curve" smooth="yes"/>
      <point x="658" y="291" type="line"/>
      <point x="581" y="291" type="line"/>
      <point x="535" y="72" type="line" smooth="yes"/>
      <point x="523" y="16"/>
      <point x="504" y="-2"/>
      <point x="470" y="-2" type="curve" smooth="yes"/>
      <point x="447" y="-2"/>
      <point x="425" y="20"/>
      <point x="425" y="59" type="curve" smooth="yes"/>
      <point x="425" y="104"/>
      <point x="449" y="134"/>
      <point x="496" y="134" type="curve" smooth="yes"/>
      <point x="605" y="134" type="line" smooth="yes"/>
      <point x="661" y="134"/>
      <point x="685" y="102"/>
      <point x="685" y="48" type="curve" smooth="yes"/>
      <point x="685" y="-66"/>
      <point x="620" y="-113"/>
      <point x="509" y="-113" type="curve" smooth="yes"/>
      <point x="368" y="-113" type="line" smooth="yes"/>
      <point x="284" y="-113"/>
      <point x="215" y="-145"/>
      <point x="215" y="-214" type="curve" smooth="yes"/>
      <point x="215" y="-252"/>
      <point x="238" y="-273"/>
    </contour>
  </outline>
</glyph>
<glyph name="debit-tamil" format="2">
  <advance width="882"/>
  <unicode hex="0BF6"/>
  <note>
uni0BF6
</note>
  <outline>
    <contour>
      <point x="182" y="-305" type="curve" smooth="yes"/>
      <point x="336" y="-305"/>
      <point x="480" y="-234"/>
      <point x="522" y="-36" type="curve" smooth="yes"/>
      <point x="647" y="554" type="line"/>
      <point x="558" y="554" type="line"/>
      <point x="434" y="-29" type="line" smooth="yes"/>
      <point x="398" y="-199"/>
      <point x="288" y="-251"/>
      <point x="181" y="-251" type="curve" smooth="yes"/>
      <point x="80" y="-251"/>
      <point x="21" y="-191"/>
      <point x="21" y="-144" type="curve" smooth="yes"/>
      <point x="21" y="-124"/>
      <point x="30" y="-116"/>
      <point x="49" y="-116" type="curve" smooth="yes"/>
      <point x="724" y="-116" type="line"/>
      <point x="866" y="554" type="line"/>
      <point x="777" y="554" type="line"/>
      <point x="646" y="-63" type="line"/>
      <point x="44" y="-63" type="line" smooth="yes"/>
      <point x="-6" y="-63"/>
      <point x="-33" y="-94"/>
      <point x="-33" y="-144" type="curve" smooth="yes"/>
      <point x="-33" y="-215"/>
      <point x="39" y="-305"/>
    </contour>
    <contour>
      <point x="18" y="15" type="line"/>
      <point x="486" y="15" type="line"/>
      <point x="498" y="68" type="line"/>
      <point x="117" y="68" type="line"/>
      <point x="221" y="554" type="line"/>
      <point x="132" y="554" type="line"/>
    </contour>
  </outline>
</glyph>
<glyph name="credit-tamil" format="2">
  <advance width="1132"/>
  <unicode hex="0BF7"/>
  <note>
uni0BF7
</note>
  <anchor x="292" y="0" name="bottom"/>
  <anchor x="293" y="0" name="nukta"/>
  <anchor x="413" y="554" name="top"/>
  <anchor x="413" y="554" name="vedic"/>
  <outline>
    <contour>
      <point x="681" y="-5" type="curve" smooth="yes"/>
      <point x="772" y="-5"/>
      <point x="834" y="75"/>
      <point x="834" y="174" type="curve" smooth="yes"/>
      <point x="834" y="268"/>
      <point x="782" y="317"/>
      <point x="696" y="317" type="curve" smooth="yes"/>
      <point x="625" y="317"/>
      <point x="550" y="270"/>
      <point x="488" y="201" type="curve"/>
      <point x="473" y="132" type="line"/>
      <point x="538" y="213"/>
      <point x="608" y="263"/>
      <point x="675" y="263" type="curve" smooth="yes"/>
      <point x="730" y="263"/>
      <point x="753" y="233"/>
      <point x="753" y="167" type="curve" smooth="yes"/>
      <point x="753" y="106"/>
      <point x="722" y="49"/>
      <point x="674" y="49" type="curve" smooth="yes"/>
      <point x="643" y="49"/>
      <point x="630" y="80"/>
      <point x="630" y="133" type="curve" smooth="yes"/>
      <point x="630" y="243"/>
      <point x="700" y="370"/>
      <point x="822" y="370" type="curve" smooth="yes"/>
      <point x="895" y="370"/>
      <point x="943" y="335"/>
      <point x="943" y="246" type="curve" smooth="yes"/>
      <point x="943" y="167"/>
      <point x="911" y="100"/>
      <point x="858" y="40" type="curve"/>
      <point x="876" y="0" type="line"/>
      <point x="1051" y="0" type="line"/>
      <point x="1063" y="54" type="line"/>
      <point x="906" y="54" type="line"/>
      <point x="900" y="29" type="line"/>
      <point x="971" y="85"/>
      <point x="1027" y="164"/>
      <point x="1027" y="254" type="curve" smooth="yes"/>
      <point x="1027" y="370"/>
      <point x="940" y="423"/>
      <point x="842" y="423" type="curve" smooth="yes"/>
      <point x="678" y="423"/>
      <point x="578" y="264"/>
      <point x="578" y="128" type="curve" smooth="yes"/>
      <point x="578" y="50"/>
      <point x="610" y="-5"/>
    </contour>
    <component base="e-tamil"/>
  </outline>
</glyph>
<glyph name="number-tamil" format="2">
  <advance width="694"/>
  <unicode hex="0BFA"/>
  <note>
uni0BFA
</note>
  <anchor x="226" y="0" name="bottom"/>
  <anchor x="463" y="554" name="imatra"/>
  <anchor x="225" y="-181" name="nukta"/>
  <anchor x="348" y="554" name="top"/>
  <anchor x="358" y="554" name="vedic"/>
  <outline>
    <contour>
      <point x="607" y="500" type="line"/>
      <point x="733" y="500" type="line"/>
      <point x="745" y="554" type="line"/>
      <point x="635" y="554" type="line"/>
      <point x="639" y="528" type="line"/>
      <point x="714" y="599"/>
      <point x="774" y="679"/>
      <point x="774" y="785" type="curve" smooth="yes"/>
      <point x="774" y="877"/>
      <point x="717" y="933"/>
      <point x="635" y="933" type="curve" smooth="yes"/>
      <point x="528" y="933"/>
      <point x="446" y="814"/>
      <point x="446" y="694" type="curve" smooth="yes"/>
      <point x="446" y="640"/>
      <point x="473" y="598"/>
      <point x="529" y="598" type="curve" smooth="yes"/>
      <point x="598" y="598"/>
      <point x="645" y="659"/>
      <point x="645" y="733" type="curve" smooth="yes"/>
      <point x="645" y="809"/>
      <point x="593" y="854"/>
      <point x="517" y="854" type="curve" smooth="yes"/>
      <point x="420" y="854"/>
      <point x="338" y="757"/>
      <point x="338" y="657" type="curve" smooth="yes"/>
      <point x="338" y="577"/>
      <point x="384" y="516"/>
      <point x="440" y="512" type="curve"/>
      <point x="462" y="554" type="line"/>
      <point x="414" y="554"/>
      <point x="389" y="602"/>
      <point x="389" y="654" type="curve" smooth="yes"/>
      <point x="389" y="734"/>
      <point x="438" y="800"/>
      <point x="510" y="800" type="curve" smooth="yes"/>
      <point x="559" y="800"/>
      <point x="577" y="770"/>
      <point x="577" y="729" type="curve" smooth="yes"/>
      <point x="577" y="693"/>
      <point x="560" y="652"/>
      <point x="523" y="652" type="curve" smooth="yes"/>
      <point x="503" y="652"/>
      <point x="495" y="672"/>
      <point x="495" y="707" type="curve" smooth="yes"/>
      <point x="495" y="786"/>
      <point x="543" y="879"/>
      <point x="619" y="879" type="curve" smooth="yes"/>
      <point x="674" y="879"/>
      <point x="707" y="842"/>
      <point x="707" y="772" type="curve" smooth="yes"/>
      <point x="707" y="677"/>
      <point x="660" y="610"/>
      <point x="593" y="541" type="curve"/>
    </contour>
    <component base="na-tamil"/>
  </outline>
</glyph>
<glyph name="quotedblright" format="2">
  <advance width="369"/>
  <unicode hex="201D"/>
  <outline>
    <contour>
      <point x="248" y="443" type="line"/>
      <point x="356" y="469"/>
      <point x="409" y="548"/>
      <point x="409" y="637" type="curve" smooth="yes"/>
      <point x="409" y="686"/>
      <point x="381" y="714"/>
      <point x="347" y="714" type="curve" smooth="yes"/>
      <point x="318" y="714"/>
      <point x="293" y="693"/>
      <point x="293" y="653" type="curve" smooth="yes"/>
      <point x="293" y="605"/>
      <point x="339" y="603"/>
      <point x="339" y="569" type="curve" smooth="yes"/>
      <point x="339" y="529"/>
      <point x="310" y="500"/>
      <point x="254" y="484" type="curve"/>
    </contour>
    <contour>
      <point x="86" y="443" type="line"/>
      <point x="195" y="469"/>
      <point x="247" y="548"/>
      <point x="247" y="637" type="curve" smooth="yes"/>
      <point x="247" y="686"/>
      <point x="220" y="714"/>
      <point x="185" y="714" type="curve" smooth="yes"/>
      <point x="157" y="714"/>
      <point x="132" y="693"/>
      <point x="132" y="653" type="curve" smooth="yes"/>
      <point x="132" y="605"/>
      <point x="177" y="603"/>
      <point x="177" y="569" type="curve" smooth="yes"/>
      <point x="177" y="529"/>
      <point x="148" y="500"/>
      <point x="92" y="484" type="curve"/>
    </contour>
  </outline>
</glyph>
<glyph name="iMatra-tamil.alt02" format="2">
  <advance width="175"/>
  <note>
uni0BBF
</note>
  <anchor x="-61" y="815" name="top"/>
  <outline>
    <contour>
      <point x="-9" y="0" type="line"/>
      <point x="46" y="0" type="line"/>
      <point x="155" y="509" type="line" smooth="yes"/>
      <point x="192" y="684"/>
      <point x="106" y="815"/>
      <point x="-61" y="815" type="curve" smooth="yes"/>
      <point x="-198" y="815"/>
      <point x="-280" y="723"/>
      <point x="-280" y="609" type="curve" smooth="yes"/>
      <point x="-280" y="566"/>
      <point x="-265" y="531"/>
      <point x="-231" y="501" type="curve"/>
      <point x="-206" y="525" type="line"/>
      <point x="-219" y="545"/>
      <point x="-225" y="570"/>
      <point x="-225" y="590" type="curve" smooth="yes"/>
      <point x="-225" y="674"/>
      <point x="-167" y="728"/>
      <point x="-71" y="728" type="curve" smooth="yes"/>
      <point x="67" y="728"/>
      <point x="125" y="630"/>
      <point x="93" y="479" type="curve" smooth="yes"/>
    </contour>
  </outline>
</glyph>
<glyph name="lii-tamil" format="2">
  <advance width="785"/>
  <note>
g135
</note>
  <anchor x="344" y="0" name="bottom"/>
  <anchor x="344" y="0" name="nukta"/>
  <anchor x="771" y="882" name="top"/>
  <anchor x="503" y="554" name="vedic"/>
  <outline>
    <contour>
      <point x="163" y="-5" type="curve" smooth="yes"/>
      <point x="242" y="-5"/>
      <point x="321" y="66"/>
      <point x="321" y="174" type="curve" smooth="yes"/>
      <point x="321" y="257"/>
      <point x="272" y="303"/>
      <point x="209" y="303" type="curve" smooth="yes"/>
      <point x="134" y="303"/>
      <point x="77" y="237"/>
      <point x="48" y="144" type="curve"/>
      <point x="71" y="116" type="line"/>
      <point x="93" y="193"/>
      <point x="128" y="236"/>
      <point x="176" y="236" type="curve" smooth="yes"/>
      <point x="210" y="236"/>
      <point x="235" y="209"/>
      <point x="235" y="157" type="curve" smooth="yes"/>
      <point x="235" y="98"/>
      <point x="203" y="49"/>
      <point x="151" y="49" type="curve" smooth="yes"/>
      <point x="101" y="49"/>
      <point x="76" y="102"/>
      <point x="76" y="199" type="curve" smooth="yes"/>
      <point x="76" y="331"/>
      <point x="169" y="505"/>
      <point x="318" y="505" type="curve" smooth="yes"/>
      <point x="421" y="505"/>
      <point x="457" y="429"/>
      <point x="430" y="314" type="curve" smooth="yes"/>
      <point x="396" y="168" type="line" smooth="yes"/>
      <point x="376" y="82"/>
      <point x="407" y="0"/>
      <point x="503" y="0" type="curve" smooth="yes"/>
      <point x="635" y="0"/>
      <point x="733" y="124"/>
      <point x="733" y="266" type="curve" smooth="yes"/>
      <point x="733" y="427"/>
      <point x="634" y="506"/>
      <point x="634" y="660" type="curve" smooth="yes"/>
      <point x="634" y="736"/>
      <point x="668" y="828"/>
      <point x="765" y="828" type="curve" smooth="yes"/>
      <point x="815" y="828"/>
      <point x="833" y="789"/>
      <point x="833" y="746" type="curve" smooth="yes"/>
      <point x="833" y="696"/>
      <point x="813" y="656"/>
      <point x="770" y="656" type="curve" smooth="yes"/>
      <point x="705" y="656"/>
      <point x="724" y="769"/>
      <point x="776" y="851" type="curve"/>
      <point x="736" y="855" type="line"/>
      <point x="659" y="742"/>
      <point x="660" y="602"/>
      <point x="776" y="602" type="curve" smooth="yes"/>
      <point x="845" y="602"/>
      <point x="908" y="660"/>
      <point x="908" y="746" type="curve" smooth="yes"/>
      <point x="908" y="831"/>
      <point x="857" y="882"/>
      <point x="771" y="882" type="curve" smooth="yes"/>
      <point x="658" y="882"/>
      <point x="580" y="770"/>
      <point x="580" y="655" type="curve" smooth="yes"/>
      <point x="580" y="490"/>
      <point x="679" y="411"/>
      <point x="679" y="257" type="curve" smooth="yes"/>
      <point x="679" y="154"/>
      <point x="612" y="59"/>
      <point x="527" y="59" type="curve" smooth="yes"/>
      <point x="479" y="59"/>
      <point x="470" y="105"/>
      <point x="484" y="167" type="curve" smooth="yes"/>
      <point x="518" y="315" type="line" smooth="yes"/>
      <point x="552" y="464"/>
      <point x="477" y="559"/>
      <point x="332" y="559" type="curve" smooth="yes"/>
      <point x="148" y="559"/>
      <point x="25" y="361"/>
      <point x="25" y="198" type="curve" smooth="yes"/>
      <point x="25" y="67"/>
      <point x="73" y="-5"/>
    </contour>
  </outline>
</glyph>
<glyph name="lluu-tamil" format="2">
  <advance width="1333"/>
  <note>
g139
</note>
  <anchor x="621" y="0" name="bottom"/>
  <anchor x="605" y="-254" name="nukta"/>
  <anchor x="857" y="554" name="top"/>
  <anchor x="722" y="554" name="vedic"/>
  <anchor x="1174" y="554" name="imatra"/>
  <outline>
    <contour>
      <point x="605" y="-254" type="curve" smooth="yes"/>
      <point x="934" y="-254"/>
      <point x="1270" y="-99"/>
      <point x="1270" y="215" type="curve" smooth="yes"/>
      <point x="1270" y="296"/>
      <point x="1230" y="345"/>
      <point x="1165" y="345" type="curve" smooth="yes"/>
      <point x="1103" y="345"/>
      <point x="1051" y="290"/>
      <point x="1031" y="197" type="curve" smooth="yes"/>
      <point x="1021" y="150" type="line"/>
      <point x="1044" y="150" type="line"/>
      <point x="1054" y="195" type="line" smooth="yes"/>
      <point x="1065" y="243"/>
      <point x="1088" y="282"/>
      <point x="1126" y="282" type="curve" smooth="yes"/>
      <point x="1159" y="282"/>
      <point x="1178" y="251"/>
      <point x="1178" y="204" type="curve" smooth="yes"/>
      <point x="1178" y="-70"/>
      <point x="896" y="-200"/>
      <point x="602" y="-200" type="curve" smooth="yes"/>
      <point x="274" y="-200"/>
      <point x="94" y="-2"/>
      <point x="94" y="233" type="curve" smooth="yes"/>
      <point x="94" y="349"/>
      <point x="144" y="496"/>
      <point x="220" y="496" type="curve" smooth="yes"/>
      <point x="245" y="496"/>
      <point x="264" y="483"/>
      <point x="264" y="446" type="curve" smooth="yes"/>
      <point x="264" y="358"/>
      <point x="186" y="309"/>
      <point x="93" y="340" type="curve"/>
      <point x="77" y="303" type="line"/>
      <point x="194" y="248"/>
      <point x="334" y="320"/>
      <point x="334" y="456" type="curve" smooth="yes"/>
      <point x="334" y="521"/>
      <point x="296" y="559"/>
      <point x="239" y="559" type="curve" smooth="yes"/>
      <point x="129" y="559"/>
      <point x="44" y="385"/>
      <point x="44" y="227" type="curve" smooth="yes"/>
      <point x="44" y="-33"/>
      <point x="238" y="-254"/>
    </contour>
    <component base="lla-tamil" xOffset="296"/>
  </outline>
</glyph>
